# Blender v2.79 (sub 0) OBJ File: 'bath.blend'
# www.blender.org
o Cube
v -1.489696 -0.645967 1.000000
v -1.489696 -0.645967 -1.000000
v 1.489697 -0.645967 -1.000000
v 1.489696 -0.645967 1.000000
v -1.183313 -0.445312 0.819261
v -1.183311 -0.445312 -0.819263
v 1.183313 -0.445312 -0.819262
v 1.183312 -0.445312 0.819262
v -1.489697 0.617591 0.999999
v -1.489695 0.617591 -1.000001
v 1.489696 0.617591 1.000000
v 1.489697 0.617591 -1.000000
v -1.301887 0.617591 0.873927
v -1.301885 0.617591 -0.873928
v 1.301886 0.617591 0.873927
v 1.301887 0.617591 -0.873927
vn 0.0000 -1.0000 0.0000
vn 0.0000 1.0000 0.0000
vn -1.0000 -0.0000 0.0000
vn 0.0000 -0.0000 -1.0000
vn 1.0000 -0.0000 0.0000
vn -0.0000 0.0000 1.0000
vn 0.9938 0.1109 0.0000
vn 0.0000 0.0514 -0.9987
vn -0.0000 0.0514 0.9987
vn -0.9938 0.1109 -0.0000
s off
f 2//1 4//1 1//1
f 8//2 6//2 5//2
f 9//3 2//3 1//3
f 10//4 3//4 2//4
f 12//5 4//5 3//5
f 1//6 11//6 9//6
f 14//2 9//2 13//2
f 13//2 11//2 15//2
f 16//2 10//2 14//2
f 15//2 12//2 16//2
f 5//7 14//7 13//7
f 5//8 15//8 8//8
f 7//9 14//9 6//9
f 8//10 16//10 7//10
f 2//1 3//1 4//1
f 8//2 7//2 6//2
f 9//3 10//3 2//3
f 10//4 12//4 3//4
f 12//5 11//5 4//5
f 1//6 4//6 11//6
f 14//2 10//2 9//2
f 13//2 9//2 11//2
f 16//2 12//2 10//2
f 15//2 11//2 12//2
f 5//7 6//7 14//7
f 5//8 13//8 15//8
f 7//9 16//9 14//9
f 8//10 15//10 16//10
