# Blender v2.79 (sub 0) OBJ File: 'player.blend'
# www.blender.org
mtllib player.mtl
o Cube
v -0.262412 -0.129598 0.143226
v -0.261460 -0.129598 -0.129492
v 0.253627 -0.129598 -0.123550
v 0.252704 -0.129598 0.140879
v -0.319834 0.973875 0.111595
v -0.319050 0.973875 -0.113063
v 0.315112 0.973875 -0.110850
v 0.314328 0.973875 0.113809
v -0.261910 -0.129598 -0.000533
v -0.060395 -0.129598 0.143931
v -0.059443 -0.129598 -0.128787
v 0.253192 -0.129598 0.001265
v -0.059893 -0.129598 0.000172
v -0.319442 0.575626 -0.000734
v -0.319050 0.575626 -0.113063
v -0.319834 0.575626 0.111595
v 0.058680 -0.129598 0.140202
v 0.059603 -0.129598 -0.124227
v -0.002361 -0.129598 0.000373
v -0.003287 -0.129598 0.265628
v 0.314328 0.575626 0.113809
v -0.001385 -0.129598 -0.279264
v 0.315112 0.575626 -0.110850
v 0.314720 0.575626 0.001480
v 0.059167 -0.129598 0.000587
v 0.059167 -0.969715 0.000587
v 0.253192 -0.969715 0.001265
v -0.261910 -0.969715 -0.000533
v -0.059893 -0.969715 0.000172
v -0.261460 -0.969715 -0.129492
v -0.262412 -0.969715 0.143226
v -0.060395 -0.969715 0.143931
v -0.059443 -0.969715 -0.128787
v 0.058680 -0.969715 0.140202
v 0.252704 -0.969715 0.140879
v 0.059603 -0.969715 -0.124227
v 0.253627 -0.969715 -0.123550
v -0.319442 -0.129598 -0.000734
v -0.318466 -0.129598 -0.280371
v -0.320368 -0.129598 0.264521
v -0.084359 1.036258 0.084819
v -0.083768 1.036258 -0.084645
v 0.314720 -0.129598 0.001480
v 0.313794 -0.129598 0.266735
v 0.315696 -0.129598 -0.278157
v 0.079637 1.036258 -0.084074
v 0.079045 1.036258 0.085390
v -0.622411 0.575626 -0.001792
v -0.622019 0.575626 -0.114121
v -0.622803 0.575626 0.110537
v -0.622803 0.973875 0.110537
v -0.622019 0.973875 -0.114121
v 0.610187 0.575626 0.002511
v 0.609795 0.575626 0.114840
v 0.610579 0.575626 -0.109818
v 0.610579 0.973875 -0.109818
v 0.609795 0.973875 0.114840
v -0.409060 0.575626 -0.113378
v -0.409060 0.973875 -0.113378
v -0.409845 0.973875 0.111281
v -0.409452 0.575626 -0.001049
v -0.409844 0.575626 0.111281
v 0.380167 0.575626 0.114039
v 0.380167 0.973875 0.114038
v 0.380951 0.575626 -0.110620
v 0.380559 0.575626 0.001709
v 0.380951 0.973875 -0.110620
v -0.622411 -0.238543 -0.001792
v -0.622019 -0.238543 -0.114121
v 0.610187 -0.238543 0.002511
v 0.609795 -0.238543 0.114840
v -0.622803 -0.238543 0.110537
v 0.610579 -0.238543 -0.109818
v 0.380167 -0.238543 0.114039
v -0.409060 -0.238543 -0.113378
v 0.380951 -0.238543 -0.110620
v -0.409452 -0.238543 -0.001049
v -0.409844 -0.238543 0.111281
v 0.380559 -0.238543 0.001709
v -0.320368 1.036258 0.264521
v -0.318466 1.036258 -0.280371
v 0.313794 1.036258 0.266735
v 0.315696 1.036258 -0.278157
v -0.084359 1.075291 0.084819
v -0.083768 1.075291 -0.084645
v 0.079045 1.075291 0.085390
v 0.079637 1.075291 -0.084074
v -0.169936 1.081640 0.172952
v -0.168727 1.081640 -0.173372
v 0.164005 1.081640 0.174117
v 0.165214 1.081640 -0.172207
v -0.169936 1.440615 0.172952
v -0.168727 1.440615 -0.173372
v 0.164005 1.440615 0.174117
v 0.165214 1.440615 -0.172207
v 0.610187 -0.104642 0.002511
v 0.610579 -0.104642 -0.109818
v 0.380559 -0.104642 0.001709
v 0.380167 -0.104642 0.114039
v 0.609795 -0.104642 0.114840
v 0.380951 -0.104642 -0.110620
v -0.622019 -0.128108 -0.114121
v -0.409060 -0.128108 -0.113378
v -0.409452 -0.128108 -0.001049
v -0.622411 -0.128108 -0.001792
v -0.622803 -0.128108 0.110537
v -0.409844 -0.128108 0.111281
v -0.169936 1.560618 0.172952
v -0.168727 1.560618 -0.173372
v 0.164005 1.560618 0.174117
v 0.165214 1.560618 -0.172207
v -0.261910 -1.087553 -0.000533
v -0.059893 -1.087553 0.000172
v -0.262412 -1.087553 0.143226
v -0.060395 -1.087553 0.143931
v -0.261143 -1.050233 -0.220432
v -0.059125 -1.050233 -0.219726
v -0.261143 -1.087553 -0.220432
v -0.059125 -1.087553 -0.219726
v 0.059167 -1.089281 0.000587
v 0.253192 -1.089281 0.001265
v 0.058680 -1.089281 0.140202
v 0.252704 -1.089281 0.140879
v 0.059938 -1.057048 -0.220363
v 0.253963 -1.057048 -0.219686
v 0.059938 -1.089281 -0.220363
v 0.253963 -1.089281 -0.219686
vt 0.030223 0.452412
vt 0.139335 0.092547
vt 0.139335 0.452412
vt 0.788166 0.782934
vt 0.757003 0.723374
vt 0.788166 0.723374
vt 0.691610 0.709681
vt 0.766456 0.816296
vt 0.691610 0.816295
vt 0.629697 0.900685
vt 0.629697 0.588818
vt 0.741052 0.587846
vt 0.735422 0.641127
vt 0.816127 0.747741
vt 0.735422 0.747741
vt 0.594541 0.645354
vt 0.598419 0.645322
vt 0.909561 0.645322
vt 0.181900 0.489796
vt 0.260414 0.129931
vt 0.260414 0.489796
vt 0.350613 0.406456
vt 0.464219 0.046591
vt 0.464219 0.406456
vt 0.241742 0.381455
vt 0.350853 0.021590
vt 0.350853 0.381455
vt 0.937342 0.969625
vt 0.982666 0.989846
vt 0.884385 0.989846
vt 0.589743 0.974549
vt 0.539217 0.994770
vt 0.539217 0.974549
vt 0.673355 0.848020
vt 0.764576 0.805319
vt 0.744356 0.848020
vt 0.670347 0.858609
vt 0.761568 0.911566
vt 0.650127 0.911566
vt 0.799820 0.727567
vt 0.749295 0.707347
vt 0.842522 0.707347
vt 0.837479 0.989846
vt 0.882803 0.969625
vt 0.882803 0.989846
vt 0.690060 0.810516
vt 0.779876 0.766358
vt 0.758252 0.810516
vt 0.742951 0.749323
vt 0.653135 0.803737
vt 0.674759 0.749323
vt 0.702204 0.871227
vt 0.653135 0.849603
vt 0.746361 0.849603
vt 0.593631 0.972967
vt 0.637498 0.951343
vt 0.637498 0.972967
vt 0.874652 0.928136
vt 0.825583 0.949760
vt 0.825583 0.928136
vt 0.696025 0.669497
vt 0.739893 0.691122
vt 0.641612 0.691122
vt 0.152754 0.207759
vt 0.222944 0.098647
vt 0.222944 0.207759
vt 0.749804 0.164870
vt 0.711570 0.210340
vt 0.711570 0.164870
vt 0.711468 0.249870
vt 0.671659 0.267557
vt 0.671659 0.249870
vt 0.276890 0.297828
vt 0.204369 0.184222
vt 0.276890 0.184222
vt 0.176596 0.464913
vt 0.290202 0.105048
vt 0.290202 0.464913
vt 0.234722 0.388357
vt 0.304913 0.028491
vt 0.304913 0.388357
vt 0.219193 0.377409
vt 0.291715 0.017544
vt 0.291714 0.377409
vt 0.156899 0.433661
vt 0.235413 0.073796
vt 0.235412 0.433662
vt 0.123525 0.452412
vt 0.204370 0.092547
vt 0.204370 0.452412
vt 0.164745 0.396043
vt 0.245589 0.036177
vt 0.245589 0.396043
vt 0.219193 0.364791
vt 0.289384 0.004926
vt 0.289384 0.364791
vt 0.190921 0.407107
vt 0.263442 0.047242
vt 0.263442 0.407107
vt 0.716027 0.752184
vt 0.755457 0.563295
vt 0.755478 0.751521
vt 0.794921 0.752224
vt 0.848677 0.875556
vt 0.794969 0.858874
vt 0.657239 0.875587
vt 0.657237 0.563311
vt 0.762706 0.780779
vt 0.951500 0.820259
vt 0.762706 0.820259
vt 0.670395 0.796172
vt 0.729197 0.919487
vt 0.670395 0.902786
vt 0.790725 0.740367
vt 0.736978 0.863682
vt 0.736977 0.551572
vt 0.716014 0.858878
vt 0.843324 0.968043
vt 0.976030 0.951342
vt 0.922282 0.968043
vt 0.848614 0.563291
vt 0.916344 0.627377
vt 0.727549 0.666856
vt 0.727549 0.568575
vt 0.643051 0.873135
vt 0.643051 0.766864
vt 0.721745 0.765490
vt 0.814015 0.798172
vt 0.707743 0.798172
vt 0.706370 0.719479
vt 0.291671 0.617697
vt 0.312969 0.641154
vt 0.291671 0.641154
vt 0.747884 0.771156
vt 0.822730 0.692197
vt 0.822730 0.771156
vt 0.405750 0.597517
vt 0.429207 0.576219
vt 0.429207 0.597517
vt 0.405750 0.551822
vt 0.427049 0.575279
vt 0.405750 0.575279
vt 0.737422 0.803005
vt 0.656716 0.881964
vt 0.656716 0.803005
vt 0.733840 0.747741
vt 0.653135 0.641127
vt 0.733840 0.641127
vt 0.794796 0.722521
vt 0.688182 0.797368
vt 0.688182 0.722521
vt 0.321350 0.650371
vt 0.365826 0.632821
vt 0.365820 0.650386
vt 0.672408 0.802103
vt 0.711887 0.833738
vt 0.672408 0.833738
vt 0.764049 0.647772
vt 0.732414 0.541158
vt 0.764049 0.541158
vt 0.835173 0.875843
vt 0.874652 0.907479
vt 0.835173 0.907479
vt 0.961038 0.536282
vt 0.882079 0.504647
vt 0.961038 0.504647
vt 0.835173 0.767647
vt 0.866808 0.874261
vt 0.835173 0.874261
vt 0.734388 0.811648
vt 0.711248 0.705033
vt 0.734388 0.705033
vt 0.745847 0.706538
vt 0.666889 0.729678
vt 0.666889 0.706538
vt 0.921684 0.684057
vt 0.961163 0.660917
vt 0.961163 0.684057
vt 0.921684 0.659335
vt 0.961163 0.636195
vt 0.961163 0.659335
vt 0.750310 0.684324
vt 0.773450 0.790938
vt 0.750310 0.790938
vt 0.302587 0.680446
vt 0.326044 0.632495
vt 0.326044 0.680446
vt 0.349500 0.632495
vt 0.349500 0.680446
vt 0.336742 0.587760
vt 0.360183 0.632238
vt 0.336727 0.632230
vt 0.383655 0.587776
vt 0.360199 0.587768
vt 0.310106 0.601587
vt 0.327672 0.625043
vt 0.310106 0.625043
vt 0.363386 0.602727
vt 0.384684 0.650678
vt 0.363386 0.650678
vt 0.423532 0.630835
vt 0.446989 0.613269
vt 0.446989 0.630835
vt 0.391803 0.603935
vt 0.347333 0.621501
vt 0.347333 0.603935
vt 0.305369 0.939727
vt 0.386074 0.903880
vt 0.386074 0.939727
vt 0.330806 0.580526
vt 0.354262 0.559227
vt 0.354262 0.580526
vt 0.446741 0.549542
vt 0.470198 0.531976
vt 0.470198 0.549542
vt 0.326352 0.619268
vt 0.343918 0.595812
vt 0.343918 0.619268
vt 0.789677 0.796764
vt 0.912684 0.714038
vt 0.849237 0.796764
vt 0.822270 0.704367
vt 0.682114 0.767814
vt 0.764840 0.704367
vt 0.768746 0.773098
vt 0.908902 0.704596
vt 0.826176 0.773098
vt 0.577105 0.550704
vt 0.700111 0.633431
vt 0.508604 0.633431
vt 0.926162 0.869018
vt 0.838764 0.837892
vt 0.956131 0.837892
vt 0.778721 0.843456
vt 0.747559 0.786026
vt 0.778721 0.786026
vt 0.979114 0.541158
vt 0.921684 0.572320
vt 0.921684 0.541158
vt 0.837182 0.837892
vt 0.777622 0.869054
vt 0.777622 0.837892
vt 0.405721 0.606126
vt 0.001641 0.994370
vt 0.001641 0.606126
vt 0.737526 0.944747
vt 0.650127 0.975873
vt 0.680095 0.944747
vt 0.740766 0.913148
vt 0.650127 0.943165
vt 0.681207 0.913148
vt 0.773528 0.752640
vt 0.682889 0.722623
vt 0.804608 0.722623
vt 0.909981 0.202440
vt 0.504081 0.313543
vt 0.504081 0.202440
vt 0.962979 0.075473
vt 0.505869 0.436376
vt 0.505869 0.075473
vt 0.505853 0.420152
vt 0.915665 0.096593
vt 0.915665 0.420152
vt 0.965064 0.042871
vt 0.508178 0.416972
vt 0.508178 0.042871
vt 0.784522 0.949760
vt 0.824001 0.767647
vt 0.824001 0.949760
vt 0.666034 0.844365
vt 0.746740 0.662251
vt 0.746740 0.844365
vt 0.716533 0.836626
vt 0.797238 0.654512
vt 0.797238 0.836626
vt 0.690910 0.889010
vt 0.730389 0.706896
vt 0.730389 0.889010
vt 0.796578 0.788780
vt 0.836120 0.606680
vt 0.836057 0.788794
vt 0.598019 0.949760
vt 0.637498 0.767647
vt 0.637498 0.949760
vt 0.784423 0.803846
vt 0.823902 0.615450
vt 0.823902 0.803846
vt 0.817709 0.829522
vt 0.857189 0.641127
vt 0.857189 0.829522
vt 0.650127 0.686760
vt 0.724973 0.498365
vt 0.724973 0.686760
vt 0.880623 0.729554
vt 0.920102 0.541158
vt 0.920102 0.729554
vt 0.880623 0.919531
vt 0.920102 0.731136
vt 0.920102 0.919531
vt 0.739352 0.868874
vt 0.814198 0.680479
vt 0.814198 0.868874
vt 0.914156 0.053163
vt 0.548543 0.432333
vt 0.548543 0.053163
vt 0.962979 0.436376
vt 0.505869 0.436376
vt 0.505853 0.096593
vt 0.915665 0.096593
vt 0.965064 0.416972
vt 0.508178 0.416972
vt 0.671659 0.249767
vt 0.699988 0.209959
vt 0.699988 0.249767
vt 0.671659 0.303136
vt 0.699988 0.285449
vt 0.699988 0.303136
vt 0.798544 0.268144
vt 0.755212 0.273745
vt 0.755212 0.268144
vt 0.699988 0.267659
vt 0.671659 0.285346
vt 0.671659 0.267659
vt 0.749906 0.208808
vt 0.789715 0.203206
vt 0.789715 0.208808
vt 0.754902 0.250251
vt 0.711570 0.210443
vt 0.754902 0.210443
vt 0.798544 0.268041
vt 0.755214 0.262424
vt 0.798550 0.250354
vt 0.711468 0.164870
vt 0.671659 0.209856
vt 0.671659 0.164870
vt 0.755005 0.248676
vt 0.782517 0.210443
vt 0.782517 0.248676
vt 0.782827 0.303880
vt 0.810338 0.285933
vt 0.810338 0.303880
vt 0.782724 0.285933
vt 0.755212 0.303880
vt 0.755212 0.285933
vt 0.782619 0.210443
vt 0.800566 0.248676
vt 0.782619 0.248676
vt 0.711570 0.291290
vt 0.749804 0.286452
vt 0.749804 0.291290
vt 0.755110 0.268300
vt 0.711570 0.263462
vt 0.755110 0.250354
vt 0.793446 0.203103
vt 0.749906 0.164870
vt 0.793446 0.164870
vt 0.755110 0.268403
vt 0.711570 0.273241
vt 0.711570 0.268403
vt 0.030223 0.092547
vt 0.757003 0.782934
vt 0.766456 0.709681
vt 0.852407 0.588818
vt 0.852407 0.900685
vt 0.816127 0.641127
vt 0.909561 0.867514
vt 0.598419 0.867514
vt 0.181900 0.129931
vt 0.350613 0.046591
vt 0.241742 0.021590
vt 0.982666 0.969625
vt 0.632444 0.994770
vt 0.653135 0.805319
vt 0.741348 0.858609
vt 0.749295 0.727567
vt 0.784522 0.969625
vt 0.668435 0.766358
vt 0.764576 0.803737
vt 0.653135 0.871227
vt 0.539217 0.951343
vt 0.918810 0.949760
vt 0.739893 0.669497
vt 0.152754 0.098647
vt 0.749804 0.210340
vt 0.711468 0.267557
vt 0.204369 0.297828
vt 0.176596 0.105048
vt 0.234722 0.028491
vt 0.219193 0.017544
vt 0.156899 0.073796
vt 0.123525 0.092547
vt 0.164745 0.036177
vt 0.219193 0.004926
vt 0.190921 0.047242
vt 0.951500 0.727032
vt 0.729197 0.607377
vt 0.790725 0.846981
vt 0.784522 0.951342
vt 0.916344 0.666856
vt 0.721756 0.766864
vt 0.721756 0.873135
vt 0.707743 0.719468
vt 0.814015 0.719468
vt 0.312969 0.617697
vt 0.747883 0.692197
vt 0.405750 0.576219
vt 0.427049 0.551822
vt 0.737422 0.881964
vt 0.653135 0.747741
vt 0.794796 0.797368
vt 0.321356 0.632805
vt 0.711887 0.802103
vt 0.732414 0.647772
vt 0.874652 0.875843
vt 0.882079 0.536282
vt 0.866808 0.767647
vt 0.711248 0.811648
vt 0.745847 0.729678
vt 0.921684 0.660917
vt 0.921684 0.636195
vt 0.773450 0.684324
vt 0.302587 0.632495
vt 0.383640 0.632246
vt 0.327672 0.601587
vt 0.384684 0.602727
vt 0.423532 0.613269
vt 0.391803 0.621501
vt 0.305369 0.903880
vt 0.330806 0.559227
vt 0.446741 0.531976
vt 0.326352 0.595812
vt 0.721176 0.714038
vt 0.904996 0.767814
vt 0.686020 0.704597
vt 0.636664 0.550704
vt 0.868732 0.869018
vt 0.747559 0.843456
vt 0.979114 0.572320
vt 0.837182 0.869054
vt 0.405721 0.994370
vt 0.767494 0.975873
vt 0.771846 0.943165
vt 0.713968 0.752640
vt 0.909981 0.313543
vt 0.784522 0.767647
vt 0.666034 0.662251
vt 0.716533 0.654512
vt 0.690910 0.706896
vt 0.796641 0.606667
vt 0.598019 0.767647
vt 0.784423 0.615450
vt 0.817709 0.641127
vt 0.650127 0.498365
vt 0.880623 0.541158
vt 0.880623 0.731136
vt 0.739352 0.680479
vt 0.914156 0.432333
vt 0.962979 0.436376
vt 0.505853 0.096593
vt 0.965064 0.416972
vt 0.671659 0.209959
vt 0.671659 0.285449
vt 0.798544 0.285831
vt 0.699988 0.285346
vt 0.749906 0.203206
vt 0.711570 0.250251
vt 0.755212 0.268026
vt 0.711468 0.209856
vt 0.755005 0.210443
vt 0.782827 0.285933
vt 0.782724 0.303880
vt 0.800566 0.210443
vt 0.711570 0.286452
vt 0.711570 0.268300
vt 0.749906 0.203103
vt 0.755110 0.286350
vn 0.0035 0.0000 -1.0000
vn 1.0000 0.0000 0.0035
vn -0.0035 0.0000 1.0000
vn -1.0000 0.0000 -0.0035
vn 0.0000 -1.0000 -0.0000
vn 0.0013 0.9300 -0.3676
vn 0.0000 1.0000 -0.0000
vn -0.0003 -0.9974 0.0716
vn 0.0003 -0.9974 -0.0716
vn -0.0743 -0.9972 -0.0003
vn 0.0743 -0.9972 0.0003
vn 0.0012 0.9390 -0.3438
vn -0.0002 -0.9974 0.0716
usemtl Material.001
s off
f 3/1/1 36/2/1 18/3/1
f 46/4/2 86/5/2 47/6/2
f 58/7/1 52/8/1 59/9/1
f 83/10/1 45/11/1 22/12/1
f 63/13/3 57/14/3 64/15/3
f 20/16/3 44/17/3 82/18/3
f 25/19/4 34/20/4 17/21/4
f 1/22/3 32/23/3 10/24/3
f 17/25/3 35/26/3 4/27/3
f 2/28/5 38/29/5 39/30/5
f 1/31/5 38/32/5 9/33/5
f 10/34/5 40/35/5 1/36/5
f 11/37/5 39/38/5 22/39/5
f 10/40/5 19/41/5 20/42/5
f 11/43/5 19/44/5 13/45/5
f 4/46/5 20/47/5 17/48/5
f 18/49/5 45/50/5 3/51/5
f 4/52/5 43/53/5 44/54/5
f 3/55/5 43/56/5 12/57/5
f 17/58/5 19/59/5 25/60/5
f 18/61/5 19/62/5 22/63/5
f 36/64/5 27/65/5 26/66/5
f 27/67/6 124/68/6 26/69/6
f 31/70/3 115/71/3 32/72/3
f 28/73/5 33/74/5 29/75/5
f 11/76/1 30/77/1 2/78/1
f 18/79/4 26/80/4 25/81/4
f 2/82/4 28/83/4 9/84/4
f 4/85/2 27/86/2 12/87/2
f 10/88/2 29/89/2 13/90/2
f 9/91/4 31/92/4 1/93/4
f 12/94/2 37/95/2 3/96/2
f 13/97/2 33/98/2 11/99/2
f 15/100/4 38/101/4 14/102/4
f 16/103/4 80/104/4 5/105/4
f 15/100/4 81/106/4 39/107/4
f 21/108/2 43/109/2 24/110/2
f 23/111/2 83/112/2 7/113/2
f 21/114/2 82/115/2 44/116/2
f 6/117/4 80/104/4 81/106/4
f 7/118/2 82/119/2 8/120/2
f 16/103/4 38/101/4 40/121/4
f 23/122/2 43/123/2 45/124/2
f 52/125/4 49/126/4 48/127/4
f 57/128/2 54/129/2 53/130/2
f 100/131/2 70/132/2 96/133/2
f 60/134/7 52/135/7 51/136/7
f 98/137/4 74/138/4 99/139/4
f 96/140/2 73/141/2 97/142/2
f 67/143/7 57/144/7 56/145/7
f 67/146/1 55/147/1 65/148/1
f 60/149/3 50/150/3 62/151/3
f 103/152/1 69/153/1 102/154/1
f 14/155/5 62/156/5 61/157/5
f 5/158/3 62/159/3 16/160/3
f 15/161/5 61/162/5 58/163/5
f 5/164/7 59/165/7 60/166/7
f 15/167/1 59/168/1 6/169/1
f 7/170/1 65/171/1 23/172/1
f 8/173/7 67/174/7 7/175/7
f 24/176/5 63/177/5 21/178/5
f 23/179/5 66/180/5 24/181/5
f 21/182/3 64/183/3 8/184/3
f 76/185/5 70/186/5 79/187/5
f 79/187/5 71/188/5 74/189/5
f 75/190/5 68/191/5 69/192/5
f 78/193/5 68/191/5 77/194/5
f 104/195/2 75/196/2 103/197/2
f 99/198/3 71/199/3 100/200/3
f 102/201/4 68/202/4 105/203/4
f 106/204/3 78/205/3 107/206/3
f 97/207/1 76/208/1 101/209/1
f 101/210/4 79/211/4 98/212/4
f 105/213/4 72/214/4 106/215/4
f 104/216/2 78/217/2 77/218/2
f 42/219/7 80/220/7 41/221/7
f 41/222/7 82/223/7 47/224/7
f 46/225/7 81/226/7 42/227/7
f 46/228/7 82/229/7 83/230/7
f 84/231/8 90/232/8 88/233/8
f 47/234/3 84/235/3 41/236/3
f 42/237/1 87/238/1 46/239/1
f 41/240/4 85/241/4 42/242/4
f 89/243/1 95/244/1 91/245/1
f 85/246/9 91/247/9 87/248/9
f 84/249/10 89/250/10 85/251/10
f 86/252/11 91/253/11 90/254/11
f 93/255/1 111/256/1 95/257/1
f 88/258/4 93/259/4 89/260/4
f 91/261/2 94/262/2 90/263/2
f 90/264/3 92/265/3 88/266/3
f 65/267/4 98/268/4 66/269/4
f 55/270/1 101/271/1 65/272/1
f 63/273/3 100/274/3 54/275/3
f 53/276/2 97/277/2 55/278/2
f 66/279/4 99/280/4 63/281/4
f 54/282/2 96/283/2 53/284/2
f 62/285/2 104/286/2 61/287/2
f 48/288/4 106/289/4 50/290/4
f 50/291/3 107/292/3 62/293/3
f 49/294/4 105/295/4 48/296/4
f 61/297/2 103/298/2 58/299/2
f 58/300/1 102/301/1 49/302/1
f 110/303/7 109/304/7 108/305/7
f 92/306/4 109/307/4 93/259/4
f 95/308/2 110/309/2 94/262/2
f 94/310/3 108/311/3 92/265/3
f 112/312/5 115/313/5 114/314/5
f 28/315/4 114/316/4 31/317/4
f 112/318/4 116/319/4 118/320/4
f 32/321/2 113/322/2 29/323/2
f 117/324/1 118/325/1 116/326/1
f 112/327/5 119/328/5 113/329/5
f 113/330/2 117/331/2 29/332/2
f 29/333/12 116/334/12 28/335/12
f 120/336/5 123/337/5 122/338/5
f 26/339/4 122/340/4 34/341/4
f 35/342/2 121/343/2 27/344/2
f 34/345/3 123/346/3 35/347/3
f 125/348/1 126/349/1 124/350/1
f 121/351/2 125/352/2 27/353/2
f 120/354/5 127/355/5 121/356/5
f 120/357/4 124/358/4 126/359/4
f 3/1/1 37/360/1 36/2/1
f 46/4/2 87/361/2 86/5/2
f 58/7/1 49/362/1 52/8/1
f 22/12/1 39/363/1 81/364/1
f 81/364/1 83/10/1 22/12/1
f 63/13/3 54/365/3 57/14/3
f 82/18/3 80/366/3 20/16/3
f 80/366/3 40/367/3 20/16/3
f 25/19/4 26/368/4 34/20/4
f 1/22/3 31/369/3 32/23/3
f 17/25/3 34/370/3 35/26/3
f 2/28/5 9/371/5 38/29/5
f 1/31/5 40/372/5 38/32/5
f 10/34/5 20/373/5 40/35/5
f 11/37/5 2/374/5 39/38/5
f 10/40/5 13/375/5 19/41/5
f 11/43/5 22/376/5 19/44/5
f 4/46/5 44/377/5 20/47/5
f 18/49/5 22/378/5 45/50/5
f 4/52/5 12/379/5 43/53/5
f 3/55/5 45/380/5 43/56/5
f 17/58/5 20/381/5 19/59/5
f 18/61/5 25/382/5 19/62/5
f 36/64/5 37/383/5 27/65/5
f 27/67/6 125/384/6 124/68/6
f 31/70/3 114/385/3 115/71/3
f 28/73/5 30/386/5 33/74/5
f 11/76/1 33/387/1 30/77/1
f 18/79/4 36/388/4 26/80/4
f 2/82/4 30/389/4 28/83/4
f 4/85/2 35/390/2 27/86/2
f 10/88/2 32/391/2 29/89/2
f 9/91/4 28/392/4 31/92/4
f 12/94/2 27/393/2 37/95/2
f 13/97/2 29/394/2 33/98/2
f 15/100/4 39/107/4 38/101/4
f 16/103/4 40/121/4 80/104/4
f 15/100/4 6/117/4 81/106/4
f 21/108/2 44/395/2 43/109/2
f 23/111/2 45/396/2 83/112/2
f 21/114/2 8/397/2 82/115/2
f 6/117/4 5/105/4 80/104/4
f 7/118/2 83/398/2 82/119/2
f 16/103/4 14/102/4 38/101/4
f 23/122/2 24/399/2 43/123/2
f 48/127/4 50/400/4 51/401/4
f 51/401/4 52/125/4 48/127/4
f 53/130/2 55/402/2 56/403/2
f 56/403/2 57/128/2 53/130/2
f 100/131/2 71/404/2 70/132/2
f 60/134/7 59/405/7 52/135/7
f 98/137/4 79/406/4 74/138/4
f 96/140/2 70/407/2 73/141/2
f 67/143/7 64/408/7 57/144/7
f 67/146/1 56/409/1 55/147/1
f 60/149/3 51/410/3 50/150/3
f 103/152/1 75/411/1 69/153/1
f 14/155/5 16/412/5 62/156/5
f 5/158/3 60/413/3 62/159/3
f 15/161/5 14/414/5 61/162/5
f 5/164/7 6/415/7 59/165/7
f 15/167/1 58/416/1 59/168/1
f 7/170/1 67/417/1 65/171/1
f 8/173/7 64/418/7 67/174/7
f 24/176/5 66/419/5 63/177/5
f 23/179/5 65/420/5 66/180/5
f 21/182/3 63/421/3 64/183/3
f 76/185/5 73/422/5 70/186/5
f 79/187/5 70/186/5 71/188/5
f 75/190/5 77/194/5 68/191/5
f 78/193/5 72/423/5 68/191/5
f 104/195/2 77/424/2 75/196/2
f 99/198/3 74/425/3 71/199/3
f 102/201/4 69/426/4 68/202/4
f 106/204/3 72/427/3 78/205/3
f 97/207/1 73/428/1 76/208/1
f 101/210/4 76/429/4 79/211/4
f 105/213/4 68/430/4 72/214/4
f 104/216/2 107/431/2 78/217/2
f 42/219/7 81/432/7 80/220/7
f 41/222/7 80/433/7 82/223/7
f 46/225/7 83/434/7 81/226/7
f 46/228/7 47/435/7 82/229/7
f 84/231/13 86/436/13 90/232/13
f 47/234/3 86/437/3 84/235/3
f 42/237/1 85/438/1 87/238/1
f 41/240/4 84/439/4 85/241/4
f 89/243/1 93/440/1 95/244/1
f 85/246/9 89/441/9 91/247/9
f 84/249/10 88/442/10 89/250/10
f 86/252/11 87/443/11 91/253/11
f 93/255/1 109/444/1 111/256/1
f 88/258/4 92/306/4 93/259/4
f 91/261/2 95/308/2 94/262/2
f 90/264/3 94/310/3 92/265/3
f 65/267/4 101/445/4 98/268/4
f 55/270/1 97/446/1 101/271/1
f 63/273/3 99/447/3 100/274/3
f 53/276/2 96/448/2 97/277/2
f 66/279/4 98/449/4 99/280/4
f 54/282/2 100/450/2 96/283/2
f 62/285/2 107/451/2 104/286/2
f 48/288/4 105/452/4 106/289/4
f 50/291/3 106/453/3 107/292/3
f 49/294/4 102/454/4 105/295/4
f 61/297/2 104/455/2 103/298/2
f 58/300/1 103/456/1 102/301/1
f 110/303/7 111/457/7 109/304/7
f 92/306/4 108/458/4 109/307/4
f 95/308/2 111/459/2 110/309/2
f 94/310/3 110/460/3 108/311/3
f 112/312/5 113/461/5 115/313/5
f 28/315/4 112/462/4 114/316/4
f 112/318/4 28/463/4 116/319/4
f 32/321/2 115/464/2 113/322/2
f 117/324/1 119/465/1 118/325/1
f 112/327/5 118/466/5 119/328/5
f 113/330/2 119/467/2 117/331/2
f 29/333/12 117/468/12 116/334/12
f 120/336/5 121/469/5 123/337/5
f 26/339/4 120/470/4 122/340/4
f 35/342/2 123/471/2 121/343/2
f 34/345/3 122/472/3 123/346/3
f 125/348/1 127/473/1 126/349/1
f 121/351/2 127/474/2 125/352/2
f 120/354/5 126/475/5 127/355/5
f 120/357/4 26/476/4 124/358/4
