# Blender v2.79 (sub 0) OBJ File: 'table.blend'
# www.blender.org
mtllib table.mtl
o Cube
v 0.659146 -0.140944 -0.659147
v 0.329539 -0.140932 0.329547
v 1.003823 0.135071 -1.003822
v 0.329540 -0.140933 0.674285
v -0.675005 -0.140927 0.328825
v -1.003801 0.135068 -1.003801
v 0.674280 -0.140936 0.329549
v 1.003844 -0.140908 -1.003844
v 1.033601 0.087138 -1.033601
v 1.047241 0.030026 -1.047240
v 1.047241 -0.030026 -1.047241
v 1.033601 -0.087138 -1.033601
v 0.674282 -0.140931 0.674285
v 1.003831 0.135073 1.003832
v 1.033601 -0.087138 1.033601
v 1.047241 -0.030026 1.047241
v 1.047240 0.030026 1.047241
v 1.033601 0.087138 1.033602
v -0.675004 -0.140930 0.675004
v -1.003847 0.135076 1.003847
v -1.033601 -0.087138 1.033601
v -1.047241 -0.030026 1.047241
v -1.047241 0.030026 1.047240
v -1.033601 0.087138 1.033601
v -0.682527 -0.140928 -0.682525
v -0.321311 -0.140934 -0.682522
v -1.033601 -0.087138 -1.033601
v -1.047241 -0.030026 -1.047241
v -1.047241 0.030026 -1.047241
v -1.033601 0.087138 -1.033601
v 0.659149 -0.140939 -0.344662
v 1.003828 -0.140930 1.003828
v -0.328827 -0.140928 0.675003
v -0.328829 -0.140932 0.328827
v -0.682527 -0.140930 -0.321303
v -1.003829 -0.140928 1.003829
v -0.000001 -0.140929 1.003828
v -0.321310 -0.140931 -0.321302
v 0.344661 -0.140938 -0.659150
v -1.003831 -0.140925 -1.003831
v 0.344662 -0.140939 -0.344664
v -1.003830 -0.140926 -0.000001
v -0.000005 -0.140933 0.000003
v -0.000009 -0.140938 -1.003822
v 1.003820 -0.140940 0.000008
v 1.003812 -0.140950 -1.003812
v 0.674272 -1.279415 0.329554
v 0.674275 -1.279410 0.674290
v 0.329533 -1.279411 0.674290
v 0.329531 -1.279411 0.329552
v -0.675012 -1.279406 0.328830
v -0.675012 -1.279408 0.675009
v -0.328835 -1.279407 0.675008
v -0.328836 -1.279410 0.328832
v -0.321319 -1.279413 -0.682517
v -0.682535 -1.279406 -0.682520
v -0.321317 -1.279409 -0.321297
v -0.682535 -1.279409 -0.321298
v 0.344654 -1.279418 -0.344659
v 0.344653 -1.279417 -0.659145
v 0.659141 -1.279418 -0.344657
v 0.659139 -1.279423 -0.659142
v 0.700092 -1.323233 0.303734
v 0.700095 -1.323226 0.700110
v 0.303712 -1.323228 0.700111
v 0.303711 -1.323228 0.303732
v -0.696423 -1.323223 0.307419
v -0.696423 -1.323225 0.696420
v -0.307424 -1.323224 0.696419
v -0.307426 -1.323228 0.307421
v -0.297405 -1.323230 -0.706431
v -0.706449 -1.323223 -0.706434
v -0.297403 -1.323226 -0.297382
v -0.706449 -1.323226 -0.297384
v 0.327919 -1.323235 -0.327924
v 0.327918 -1.323234 -0.675880
v 0.675876 -1.323235 -0.327922
v 0.675873 -1.323241 -0.675877
vt 0.488970 0.845591
vt 0.462035 0.015237
vt 0.488971 0.015236
vt 0.653502 0.541650
vt 0.813936 0.477886
vt 0.819628 0.718048
vt 0.788938 0.644603
vt 0.744169 0.469117
vt 0.706616 0.474260
vt 0.735062 0.570217
vt 0.790761 0.616627
vt 0.196941 0.845598
vt 0.167291 0.015239
vt 0.196940 0.015236
vt 0.105327 0.845605
vt 0.136265 0.015241
vt 0.136265 0.845609
vt 0.705508 0.488765
vt 0.819167 0.716185
vt 0.855204 0.802899
vt 0.695782 0.498211
vt 0.900312 0.910633
vt 0.676015 0.525548
vt 0.856667 0.805057
vt 0.621777 0.242961
vt 0.654726 0.320521
vt 0.582937 0.149974
vt 0.689052 0.511903
vt 0.533708 0.033031
vt 0.571959 0.127001
vt 0.703949 0.353190
vt 0.786625 0.483837
vt 0.768782 0.484893
vt 0.755471 0.481677
vt 0.743532 0.483865
vt 0.614397 0.190539
vt 0.635169 0.373130
vt 0.258305 0.845601
vt 0.287831 0.015237
vt 0.287832 0.845602
vt 0.714288 0.475797
vt 0.732845 0.490485
vt 0.686505 0.442905
vt 0.702126 0.459642
vt 0.712839 0.439942
vt 0.717202 0.494710
vt 0.676973 0.342079
vt 0.657539 0.347093
vt 0.680350 0.372866
vt 0.652152 0.300087
vt 0.704132 0.453089
vt 0.729905 0.455420
vt 0.725277 0.429204
vt 0.707609 0.400885
vt 0.742647 0.506790
vt 0.746207 0.539350
vt 0.733237 0.502668
vt 0.759301 0.546077
vt 0.102427 0.921636
vt 0.070690 0.889563
vt 0.104639 0.889559
vt 0.072524 0.954536
vt 0.104007 0.922495
vt 0.102174 0.954536
vt 0.320678 0.878483
vt 0.292309 0.846479
vt 0.322111 0.846475
vt 0.289783 0.846475
vt 0.258304 0.878518
vt 0.260134 0.846478
vt 0.378475 0.845598
vt 0.348949 0.015237
vt 0.378475 0.015236
vt 0.041342 0.845589
vt 0.010446 0.015237
vt 0.041385 0.015236
vt 0.227967 0.845598
vt 0.257616 0.015239
vt 0.257616 0.845602
vt 0.406100 0.845591
vt 0.379163 0.015237
vt 0.406099 0.015236
vt 0.288520 0.845600
vt 0.318046 0.015239
vt 0.318046 0.845603
vt 0.073012 0.845586
vt 0.042073 0.015237
vt 0.073012 0.015236
vt 0.136953 0.845586
vt 0.166603 0.015237
vt 0.166602 0.845588
vt 0.433724 0.845590
vt 0.406787 0.015240
vt 0.433723 0.015236
vt 0.104638 0.845595
vt 0.073700 0.015238
vt 0.104639 0.015236
vt 0.434412 0.845591
vt 0.461347 0.015241
vt 0.461347 0.845596
vt 0.348261 0.845598
vt 0.318734 0.015240
vt 0.348260 0.015236
vt 0.227279 0.845593
vt 0.197629 0.015238
vt 0.227279 0.015236
vt 0.200608 0.887919
vt 0.167291 0.846457
vt 0.200609 0.846457
vt 0.070690 0.846454
vt 0.104639 0.888702
vt 0.070690 0.888702
vt 0.167291 0.888775
vt 0.197093 0.925863
vt 0.167291 0.925863
vt 0.045439 0.890043
vt 0.010405 0.846445
vt 0.045439 0.846445
vt 0.320219 0.912290
vt 0.291857 0.944303
vt 0.293284 0.912294
vt 0.138306 0.879393
vt 0.105327 0.911458
vt 0.107369 0.879398
vt 0.224795 0.944367
vt 0.256532 0.912290
vt 0.254321 0.944367
vt 0.138304 0.878537
vt 0.105327 0.846465
vt 0.140361 0.846477
vt 0.259431 0.912290
vt 0.291169 0.944366
vt 0.257220 0.944367
vt 0.255568 0.878518
vt 0.222582 0.846458
vt 0.257616 0.846458
vt 0.042138 0.890899
vt 0.010405 0.922980
vt 0.012612 0.890903
vt 0.224632 0.879374
vt 0.257617 0.911434
vt 0.222582 0.911434
vt 0.107162 0.912314
vt 0.138644 0.944354
vt 0.105327 0.944354
vt 0.011838 0.923836
vt 0.040206 0.955844
vt 0.010405 0.955844
vt 0.289788 0.911431
vt 0.258305 0.879394
vt 0.291622 0.879391
vt 0.320678 0.911399
vt 0.292310 0.879391
vt 0.322112 0.879391
vt 0.462035 0.845591
vt 0.167291 0.845601
vt 0.105328 0.015236
vt 0.258304 0.015236
vt 0.072901 0.921640
vt 0.070690 0.922496
vt 0.293743 0.878487
vt 0.291621 0.878515
vt 0.348949 0.845598
vt 0.010405 0.845589
vt 0.227967 0.015236
vt 0.379164 0.845591
vt 0.288520 0.015236
vt 0.042075 0.845587
vt 0.136952 0.015236
vt 0.406789 0.845594
vt 0.073700 0.845597
vt 0.434411 0.015236
vt 0.318734 0.845602
vt 0.197629 0.845595
vt 0.167291 0.887919
vt 0.104639 0.846453
vt 0.197093 0.888775
vt 0.010405 0.890044
vt 0.321659 0.944298
vt 0.140361 0.911452
vt 0.222582 0.912290
vt 0.107366 0.878526
vt 0.288958 0.912290
vt 0.224630 0.878518
vt 0.044354 0.922976
vt 0.255570 0.879374
vt 0.136812 0.912314
vt 0.038774 0.923836
vt 0.260138 0.911434
vt 0.293743 0.911400
vn -1.0000 0.0000 0.0000
vn -0.0000 1.0000 -0.0000
vn 0.0000 -0.5955 -0.8034
vn 0.8022 -0.5970 -0.0000
vn 1.0000 -0.0000 -0.0000
vn 0.0000 -0.0000 -1.0000
vn 0.0000 -0.4842 -0.8750
vn 0.0000 -0.2323 -0.9726
vn 0.0000 0.2323 -0.9726
vn -0.0000 0.5277 -0.8494
vn -0.8496 0.5273 -0.0000
vn -0.9726 0.2323 -0.0000
vn -0.9726 -0.2323 -0.0000
vn -0.8749 -0.4843 0.0000
vn -0.0000 0.5276 0.8495
vn -0.0000 0.2323 0.9726
vn -0.0000 -0.0000 1.0000
vn -0.0000 -0.2323 0.9726
vn 0.0000 -0.4843 0.8749
vn 0.8494 0.5277 0.0000
vn 0.9726 0.2323 0.0000
vn 0.9726 -0.2323 0.0000
vn 0.8749 -0.4842 0.0000
vn -0.0000 -1.0000 0.0000
vn 0.8615 0.5077 -0.0000
vn -0.0000 0.4390 0.8985
vn 0.9342 0.3568 -0.0000
vn 0.0000 0.4390 -0.8985
vn 0.0000 0.3568 -0.9342
vn 0.0000 0.4791 -0.8778
vn -0.0000 0.5077 0.8615
vn 0.8778 0.4791 -0.0000
vn -0.8615 0.5077 0.0000
vn -0.0000 0.4791 0.8778
vn 0.0000 0.5077 -0.8615
vn -0.8778 0.4791 0.0000
vn -0.8985 0.4390 0.0000
vn -0.9342 0.3568 0.0000
vn 0.8985 0.4390 -0.0000
vn -0.0000 0.3568 0.9342
vn 0.8066 -0.5911 0.0000
vn -0.0000 -0.4843 -0.8749
vn 0.0000 0.5280 -0.8492
vn -0.8492 0.5280 -0.0000
vn 0.0000 0.5274 0.8496
vn 0.8495 0.5276 -0.0000
vn 0.8749 -0.4843 0.0000
usemtl Material.001
s off
f 41/1/1 60/2/1 59/3/1
f 6/4/2 14/5/2 3/6/2
f 8/7/3 44/8/3 40/9/3
f 8/7/4 45/10/4 46/11/4
f 34/12/5 53/13/5 54/14/5
f 26/15/6 56/16/6 25/17/6
f 8/7/7 27/18/7 12/19/7
f 27/18/8 11/20/8 12/19/8
f 28/21/6 10/22/6 11/20/6
f 10/22/9 30/23/9 9/24/9
f 9/24/10 6/4/10 3/6/10
f 6/4/11 24/25/11 20/26/11
f 30/23/12 23/27/12 24/25/12
f 29/28/1 22/29/1 23/27/1
f 28/21/13 21/30/13 22/29/13
f 27/18/14 40/9/14 42/31/14
f 14/5/15 24/25/15 18/32/15
f 18/32/16 23/27/16 17/33/16
f 23/27/17 16/34/17 17/33/17
f 22/29/18 15/35/18 16/34/18
f 21/30/19 36/36/19 37/37/19
f 3/6/20 18/32/20 9/24/20
f 9/24/21 17/33/21 10/22/21
f 17/33/5 11/20/5 10/22/5
f 16/34/22 12/19/22 11/20/22
f 15/35/23 8/7/23 12/19/23
f 4/38/17 48/39/17 13/40/17
f 13/41/24 45/10/24 32/42/24
f 13/41/24 37/37/24 4/43/24
f 2/44/24 37/37/24 43/45/24
f 2/44/24 45/10/24 7/46/24
f 5/47/24 36/36/24 42/31/24
f 33/48/24 43/45/24 37/37/24
f 5/47/24 43/45/24 34/49/24
f 33/48/24 36/36/24 19/50/24
f 25/51/24 44/8/24 26/52/24
f 38/53/24 44/8/24 43/45/24
f 38/53/24 42/31/24 35/54/24
f 25/51/24 42/31/24 40/9/24
f 39/55/24 43/45/24 44/8/24
f 31/56/24 43/45/24 41/57/24
f 31/56/24 46/11/24 45/10/24
f 39/55/24 46/11/24 1/58/24
f 47/59/25 64/60/25 63/61/25
f 52/62/26 69/63/26 53/64/26
f 62/65/27 77/66/27 78/67/27
f 54/68/28 67/69/28 51/70/28
f 4/71/1 50/72/1 49/73/1
f 26/74/5 57/75/5 55/76/5
f 34/77/6 51/78/6 5/79/6
f 31/80/17 59/81/17 61/82/17
f 7/83/6 50/84/6 2/85/6
f 38/86/17 58/87/17 57/88/17
f 19/89/17 53/90/17 33/91/17
f 1/92/5 61/93/5 62/94/5
f 35/95/1 56/96/1 58/97/1
f 1/98/6 60/99/6 39/100/6
f 7/101/5 48/102/5 47/103/5
f 19/104/1 51/105/1 52/106/1
f 70/107/24 68/108/24 67/109/24
f 63/110/24 65/111/24 66/112/24
f 78/113/24 75/114/24 76/115/24
f 71/116/24 74/117/24 72/118/24
f 62/119/29 76/120/29 60/121/29
f 55/122/30 72/123/30 56/124/30
f 49/125/31 64/126/31 48/127/31
f 55/128/32 73/129/32 71/130/32
f 49/131/33 66/132/33 65/133/33
f 57/134/34 74/135/34 73/136/34
f 47/137/35 66/138/35 50/139/35
f 58/140/36 72/141/36 74/142/36
f 52/143/37 67/144/37 68/145/37
f 59/146/38 76/147/38 75/148/38
f 54/149/39 69/150/39 70/151/39
f 61/152/40 75/153/40 77/154/40
f 41/1/1 39/155/1 60/2/1
f 6/4/2 20/26/2 14/5/2
f 8/7/3 46/11/3 44/8/3
f 8/7/41 32/42/41 45/10/41
f 34/12/5 33/156/5 53/13/5
f 26/15/6 55/157/6 56/16/6
f 8/7/42 40/9/42 27/18/42
f 27/18/8 28/21/8 11/20/8
f 28/21/6 29/28/6 10/22/6
f 10/22/9 29/28/9 30/23/9
f 9/24/43 30/23/43 6/4/43
f 6/4/44 30/23/44 24/25/44
f 30/23/12 29/28/12 23/27/12
f 29/28/1 28/21/1 22/29/1
f 28/21/13 27/18/13 21/30/13
f 36/36/14 21/30/14 42/31/14
f 21/30/14 27/18/14 42/31/14
f 14/5/45 20/26/45 24/25/45
f 18/32/16 24/25/16 23/27/16
f 23/27/17 22/29/17 16/34/17
f 22/29/18 21/30/18 15/35/18
f 32/42/19 15/35/19 37/37/19
f 15/35/19 21/30/19 37/37/19
f 3/6/46 14/5/46 18/32/46
f 9/24/21 18/32/21 17/33/21
f 17/33/5 16/34/5 11/20/5
f 16/34/22 15/35/22 12/19/22
f 15/35/47 32/42/47 8/7/47
f 4/38/17 49/158/17 48/39/17
f 13/41/24 7/46/24 45/10/24
f 13/41/24 32/42/24 37/37/24
f 2/44/24 4/43/24 37/37/24
f 2/44/24 43/45/24 45/10/24
f 5/47/24 19/50/24 36/36/24
f 33/48/24 34/49/24 43/45/24
f 5/47/24 42/31/24 43/45/24
f 33/48/24 37/37/24 36/36/24
f 25/51/24 40/9/24 44/8/24
f 38/53/24 26/52/24 44/8/24
f 38/53/24 43/45/24 42/31/24
f 25/51/24 35/54/24 42/31/24
f 39/55/24 41/57/24 43/45/24
f 31/56/24 45/10/24 43/45/24
f 31/56/24 1/58/24 46/11/24
f 39/55/24 44/8/24 46/11/24
f 47/59/25 48/159/25 64/60/25
f 52/62/26 68/160/26 69/63/26
f 62/65/27 61/161/27 77/66/27
f 54/68/28 70/162/28 67/69/28
f 4/71/1 2/163/1 50/72/1
f 26/74/5 38/164/5 57/75/5
f 34/77/6 54/165/6 51/78/6
f 31/80/17 41/166/17 59/81/17
f 7/83/6 47/167/6 50/84/6
f 38/86/17 35/168/17 58/87/17
f 19/89/17 52/169/17 53/90/17
f 1/92/5 31/170/5 61/93/5
f 35/95/1 25/171/1 56/96/1
f 1/98/6 62/172/6 60/99/6
f 7/101/5 13/173/5 48/102/5
f 19/104/1 5/174/1 51/105/1
f 70/107/24 69/175/24 68/108/24
f 63/110/24 64/176/24 65/111/24
f 78/113/24 77/177/24 75/114/24
f 71/116/24 73/178/24 74/117/24
f 62/119/29 78/179/29 76/120/29
f 55/122/30 71/180/30 72/123/30
f 49/125/31 65/181/31 64/126/31
f 55/128/32 57/182/32 73/129/32
f 49/131/33 50/183/33 66/132/33
f 57/134/34 58/184/34 74/135/34
f 47/137/35 63/185/35 66/138/35
f 58/140/36 56/186/36 72/141/36
f 52/143/37 51/187/37 67/144/37
f 59/146/38 60/188/38 76/147/38
f 54/149/39 53/189/39 69/150/39
f 61/152/40 59/190/40 75/153/40
