# Blender v2.79 (sub 0) OBJ File: 'thing.blend'
# www.blender.org
mtllib thing.mtl
o Cylinder
v -0.000000 -1.141502 0.395522
v -0.000000 1.141502 0.356723
v -0.232482 -1.141502 0.319984
v -0.209676 1.141502 0.288595
v -0.376164 -1.141502 0.122223
v -0.339263 1.141502 0.110233
v -0.376164 -1.141502 -0.122223
v -0.339263 1.141502 -0.110233
v -0.232482 -1.141502 -0.319984
v -0.209676 1.141502 -0.288595
v 0.000000 -1.141502 -0.395522
v 0.000000 1.141502 -0.356723
v 0.232482 -1.141502 -0.319984
v 0.209676 1.141502 -0.288595
v 0.376164 -1.141502 -0.122223
v 0.339263 1.141502 -0.110233
v 0.376164 -1.141502 0.122223
v 0.339263 1.141502 0.110233
v 0.232482 -1.141502 0.319984
v 0.209676 1.141502 0.288595
v -0.000000 -1.141502 0.395522
v -0.232482 -1.141502 0.319984
v -0.376164 -1.141502 0.122223
v -0.376164 -1.141502 -0.122223
v -0.232482 -1.141502 -0.319984
v 0.000000 -1.141502 -0.395522
v 0.232482 -1.141502 -0.319984
v 0.376164 -1.141502 -0.122223
v 0.376164 -1.141502 0.122223
v 0.232482 -1.141502 0.319984
v -0.000000 -1.141502 0.395522
v -0.232482 -1.141502 0.319984
v -0.376164 -1.141502 0.122223
v -0.376164 -1.141502 -0.122223
v -0.232482 -1.141502 -0.319984
v 0.000000 -1.141502 -0.395522
v 0.232482 -1.141502 -0.319984
v 0.376164 -1.141502 -0.122223
v 0.376164 -1.141502 0.122223
v 0.232482 -1.141502 0.319984
v -0.000000 -1.524872 0.806204
v -0.473875 -1.524872 0.652233
v -0.766746 -1.524872 0.249131
v -0.766746 -1.524872 -0.249131
v -0.473875 -1.524872 -0.652233
v 0.000000 -1.524872 -0.806204
v 0.473875 -1.524872 -0.652233
v 0.766746 -1.524872 -0.249131
v 0.766746 -1.524872 0.249131
v 0.473875 -1.524872 0.652233
v -0.263611 1.229040 0.362830
v -0.000000 1.229040 0.448483
v -0.426532 1.229040 0.138589
v -0.426532 1.229040 -0.138589
v -0.263611 1.229040 -0.362830
v 0.000000 1.229040 -0.448483
v 0.263612 1.229040 -0.362830
v 0.426532 1.229040 -0.138589
v 0.426532 1.229040 0.138589
v 0.263611 1.229040 0.362830
v -0.263611 1.229040 0.362830
v -0.000000 1.229040 0.448483
v -0.426532 1.229040 0.138589
v -0.426532 1.229040 -0.138589
v -0.263611 1.229040 -0.362830
v 0.000000 1.229040 -0.448483
v 0.263612 1.229040 -0.362830
v 0.426532 1.229040 -0.138589
v 0.426532 1.229040 0.138589
v 0.263611 1.229040 0.362830
v -0.335869 1.405090 0.462284
v 0.000000 1.405090 0.571414
v -0.543447 1.405090 0.176577
v -0.543447 1.405090 -0.176577
v -0.335869 1.405090 -0.462284
v 0.000000 1.405090 -0.571414
v 0.335869 1.405090 -0.462284
v 0.543447 1.405090 -0.176577
v 0.543447 1.405090 0.176577
v 0.335869 1.405090 0.462284
v -0.283562 1.752858 0.390290
v 0.000000 1.752858 0.482424
v -0.458813 1.752858 0.149077
v -0.458813 1.752858 -0.149077
v -0.283562 1.752858 -0.390290
v 0.000000 1.752858 -0.482424
v 0.283562 1.752858 -0.390290
v 0.458813 1.752858 -0.149077
v 0.458813 1.752858 0.149077
v 0.283562 1.752858 0.390290
v -0.335869 1.691490 0.462284
v -0.000000 1.691490 0.571414
v -0.543447 1.691490 0.176577
v -0.543447 1.691490 -0.176577
v -0.335869 1.691490 -0.462284
v 0.000000 1.691490 -0.571414
v 0.335869 1.691490 -0.462284
v 0.543447 1.691490 -0.176577
v 0.543447 1.691490 0.176577
v 0.335869 1.691490 0.462284
v -0.226387 1.225147 0.311594
v 0.000000 1.225147 0.385152
v -0.366301 1.225147 0.119018
v -0.366301 1.225147 -0.119018
v -0.226387 1.225147 -0.311594
v 0.000000 1.225147 -0.385152
v 0.226387 1.225147 -0.311594
v 0.366301 1.225147 -0.119019
v 0.366301 1.225147 0.119019
v 0.226386 1.225147 0.311595
vn -0.3090 0.0162 0.9509
vn -0.8089 0.0162 0.5877
vn -0.9999 0.0162 -0.0000
vn -0.8089 0.0162 -0.5877
vn -0.3090 0.0162 -0.9509
vn 0.3090 0.0162 -0.9509
vn 0.8089 0.0162 -0.5877
vn 0.9999 0.0162 0.0000
vn 0.2188 -0.7060 -0.6735
vn 0.8089 0.0162 0.5877
vn 0.3090 0.0162 0.9509
vn 0.0000 0.0000 1.0000
vn -0.2165 0.7137 -0.6662
vn 0.0000 -1.0000 0.0000
vn -0.5667 0.7137 0.4117
vn 0.5667 0.7137 0.4117
vn 0.2165 0.7137 -0.6662
vn -0.7005 0.7137 0.0000
vn 0.2165 0.7137 0.6662
vn 0.5667 0.7137 -0.4117
vn -0.5667 0.7137 -0.4117
vn -0.2165 0.7137 0.6662
vn 0.7005 0.7137 0.0000
vn -0.2188 -0.7060 -0.6735
vn -0.5729 -0.7060 -0.4163
vn -0.2188 -0.7060 0.6735
vn -0.7082 -0.7060 0.0000
vn -0.5729 -0.7060 0.4163
vn 0.2188 -0.7060 0.6735
vn 0.5729 -0.7060 0.4163
vn 0.7082 -0.7060 0.0000
vn 0.5729 -0.7060 -0.4163
vn -0.8330 -0.5532 0.0000
vn 0.8090 0.0000 -0.5878
vn 0.2574 -0.5532 0.7923
vn 0.6739 -0.5532 -0.4896
vn -0.6739 -0.5532 -0.4896
vn -0.2574 -0.5532 0.7923
vn 0.8330 -0.5532 0.0000
vn -0.2574 -0.5532 -0.7923
vn -0.6739 -0.5532 0.4896
vn 0.6739 -0.5532 0.4896
vn 0.2574 -0.5532 -0.7923
vn 0.3044 0.1727 -0.9368
vn -0.8090 0.0000 -0.5878
vn -0.3090 -0.0000 0.9511
vn 1.0000 0.0000 0.0000
vn -0.3090 -0.0000 -0.9511
vn -0.8090 0.0000 0.5878
vn 0.8090 0.0000 0.5878
vn 0.3090 0.0000 -0.9511
vn -1.0000 0.0000 0.0000
vn 0.3090 0.0000 0.9511
vn -0.1814 0.8096 0.5583
vn -0.4749 0.8096 0.3450
vn -0.5870 0.8096 0.0000
vn -0.4749 0.8096 -0.3450
vn -0.1814 0.8096 -0.5583
vn 0.1814 0.8096 -0.5583
vn 0.4749 0.8096 -0.3450
vn 0.5870 0.8096 0.0000
vn 0.4749 0.8096 0.3450
vn 0.1814 0.8096 0.5583
vn 0.0000 1.0000 0.0000
vn -0.9850 0.1727 -0.0000
vn 0.3044 0.1727 0.9368
vn 0.7969 0.1727 -0.5790
vn -0.7969 0.1727 -0.5790
vn -0.3044 0.1727 0.9368
vn 0.9850 0.1727 0.0000
vn -0.3044 0.1727 -0.9368
vn -0.7969 0.1727 0.5790
vn 0.7969 0.1727 0.5790
usemtl None
s off
f 2//1 3//1 1//1
f 4//2 5//2 3//2
f 6//3 7//3 5//3
f 8//4 9//4 7//4
f 10//5 11//5 9//5
f 12//6 13//6 11//6
f 14//7 15//7 13//7
f 16//8 17//8 15//8
f 12//9 57//9 14//9
f 18//10 19//10 17//10
f 20//11 1//11 19//11
f 9//12 26//12 25//12
f 21//12 32//12 31//12
f 7//12 25//12 24//12
f 1//12 22//12 21//12
f 5//12 24//12 23//12
f 3//12 23//12 22//12
f 19//12 21//12 30//12
f 17//12 30//12 29//12
f 15//12 29//12 28//12
f 13//12 28//12 27//12
f 11//12 27//12 26//12
f 35//13 46//13 45//13
f 28//12 39//12 38//12
f 25//12 36//12 35//12
f 22//12 33//12 32//12
f 29//12 40//12 39//12
f 26//12 37//12 36//12
f 23//12 34//12 33//12
f 30//12 31//12 40//12
f 27//12 38//12 37//12
f 24//12 35//12 34//12
f 44//14 48//14 50//14
f 32//15 43//15 42//15
f 39//16 50//16 49//16
f 36//17 47//17 46//17
f 34//18 43//18 33//18
f 31//19 50//19 40//19
f 38//20 47//20 37//20
f 35//21 44//21 34//21
f 32//22 41//22 31//22
f 39//23 48//23 38//23
f 57//12 66//12 67//12
f 10//24 56//24 12//24
f 10//25 54//25 55//25
f 4//26 52//26 51//26
f 6//27 54//27 8//27
f 4//28 53//28 6//28
f 20//29 52//29 2//29
f 20//30 59//30 60//30
f 16//31 59//31 18//31
f 14//32 58//32 16//32
f 63//33 74//33 64//33
f 54//12 63//12 64//12
f 52//12 70//12 62//12
f 58//12 67//12 68//12
f 55//12 64//12 65//12
f 51//12 62//12 61//12
f 59//12 68//12 69//12
f 56//12 65//12 66//12
f 53//12 61//12 63//12
f 60//12 69//12 70//12
f 77//34 98//34 78//34
f 70//35 72//35 62//35
f 68//36 77//36 78//36
f 64//37 75//37 65//37
f 61//38 72//38 71//38
f 68//39 79//39 69//39
f 65//40 76//40 66//40
f 63//41 71//41 73//41
f 70//42 79//42 80//42
f 67//43 76//43 77//43
f 82//44 101//44 81//44
f 74//45 95//45 75//45
f 72//46 91//46 71//46
f 78//47 99//47 79//47
f 75//48 96//48 76//48
f 71//49 93//49 73//49
f 79//50 100//50 80//50
f 76//51 97//51 77//51
f 73//52 94//52 74//52
f 80//53 92//53 72//53
f 81//54 92//54 82//54
f 81//55 93//55 91//55
f 84//56 93//56 83//56
f 85//57 94//57 84//57
f 86//58 95//58 85//58
f 87//59 96//59 86//59
f 88//60 97//60 87//60
f 89//61 98//61 88//61
f 90//62 99//62 89//62
f 82//63 100//63 90//63
f 109//64 105//64 103//64
f 88//65 109//65 89//65
f 85//66 106//66 86//66
f 83//67 101//67 103//67
f 89//68 110//68 90//68
f 86//69 107//69 87//69
f 83//70 104//70 84//70
f 82//71 110//71 102//71
f 87//72 108//72 88//72
f 84//73 105//73 85//73
f 2//1 4//1 3//1
f 4//2 6//2 5//2
f 6//3 8//3 7//3
f 8//4 10//4 9//4
f 10//5 12//5 11//5
f 12//6 14//6 13//6
f 14//7 16//7 15//7
f 16//8 18//8 17//8
f 12//9 56//9 57//9
f 18//10 20//10 19//10
f 20//11 2//11 1//11
f 9//12 11//12 26//12
f 21//12 22//12 32//12
f 7//12 9//12 25//12
f 1//12 3//12 22//12
f 5//12 7//12 24//12
f 3//12 5//12 23//12
f 19//12 1//12 21//12
f 17//12 19//12 30//12
f 15//12 17//12 29//12
f 13//12 15//12 28//12
f 11//12 13//12 27//12
f 35//13 36//13 46//13
f 28//12 29//12 39//12
f 25//12 26//12 36//12
f 22//12 23//12 33//12
f 29//12 30//12 40//12
f 26//12 27//12 37//12
f 23//12 24//12 34//12
f 30//12 21//12 31//12
f 27//12 28//12 38//12
f 24//12 25//12 35//12
f 50//14 41//14 42//14
f 42//14 43//14 50//14
f 43//14 44//14 50//14
f 44//14 45//14 46//14
f 46//14 47//14 44//14
f 47//14 48//14 44//14
f 48//14 49//14 50//14
f 32//15 33//15 43//15
f 39//16 40//16 50//16
f 36//17 37//17 47//17
f 34//18 44//18 43//18
f 31//19 41//19 50//19
f 38//20 48//20 47//20
f 35//21 45//21 44//21
f 32//22 42//22 41//22
f 39//23 49//23 48//23
f 57//12 56//12 66//12
f 10//24 55//24 56//24
f 10//25 8//25 54//25
f 4//26 2//26 52//26
f 6//27 53//27 54//27
f 4//28 51//28 53//28
f 20//29 60//29 52//29
f 20//30 18//30 59//30
f 16//31 58//31 59//31
f 14//32 57//32 58//32
f 63//33 73//33 74//33
f 54//12 53//12 63//12
f 52//12 60//12 70//12
f 58//12 57//12 67//12
f 55//12 54//12 64//12
f 51//12 52//12 62//12
f 59//12 58//12 68//12
f 56//12 55//12 65//12
f 53//12 51//12 61//12
f 60//12 59//12 69//12
f 77//34 97//34 98//34
f 70//35 80//35 72//35
f 68//36 67//36 77//36
f 64//37 74//37 75//37
f 61//38 62//38 72//38
f 68//39 78//39 79//39
f 65//40 75//40 76//40
f 63//41 61//41 71//41
f 70//42 69//42 79//42
f 67//43 66//43 76//43
f 82//44 102//44 101//44
f 74//45 94//45 95//45
f 72//46 92//46 91//46
f 78//47 98//47 99//47
f 75//48 95//48 96//48
f 71//49 91//49 93//49
f 79//50 99//50 100//50
f 76//51 96//51 97//51
f 73//52 93//52 94//52
f 80//53 100//53 92//53
f 81//54 91//54 92//54
f 81//55 83//55 93//55
f 84//56 94//56 93//56
f 85//57 95//57 94//57
f 86//58 96//58 95//58
f 87//59 97//59 96//59
f 88//60 98//60 97//60
f 89//61 99//61 98//61
f 90//62 100//62 99//62
f 82//63 92//63 100//63
f 103//64 101//64 109//64
f 101//64 102//64 109//64
f 102//64 110//64 109//64
f 109//64 108//64 107//64
f 107//64 106//64 105//64
f 105//64 104//64 103//64
f 109//64 107//64 105//64
f 88//65 108//65 109//65
f 85//66 105//66 106//66
f 83//67 81//67 101//67
f 89//68 109//68 110//68
f 86//69 106//69 107//69
f 83//70 103//70 104//70
f 82//71 90//71 110//71
f 87//72 107//72 108//72
f 84//73 104//73 105//73
